<svg width="32" height="32" viewBox="0 0 32 32" fill="none" xmlns="http://www.w3.org/2000/svg">
<rect width="32" height="32" rx="2" fill="#45688F"/>
<path d="M13 7C12.4478 7 12 7.44775 12 8V8.73315C12 9.61011 11.6238 10.4299 10.9907 11C11.6238 11.5701 12 12.3899 12 13.2668V14C12 14.5522 12.4478 15 13 15C13.5522 15 14 15.4478 14 16C14 16.5522 13.5522 17 13 17C11.3433 17 10 15.6569 10 14V13.2668C10 12.8693 9.77539 12.5057 9.41968 12.3279L8.55273 11.8944C8.21411 11.725 8 11.3788 8 11C8 10.8057 8.0564 10.6199 8.15698 10.4622C8.25244 10.3125 8.38794 10.1881 8.55273 10.1056L9.41968 9.67212C9.77539 9.49426 10 9.13074 10 8.73315V8C10 6.34314 11.3433 5 13 5C13.5522 5 14 5.44775 14 6C14 6.55225 13.5522 7 13 7Z" fill="white"/>
<path d="M19 7C19.5522 7 20 7.44775 20 8V8.73315C20 9.61011 20.3762 10.4299 21.0093 11C20.3762 11.5701 20 12.3899 20 13.2668V14C20 14.5522 19.5522 15 19 15C18.4478 15 18 15.4478 18 16C18 16.5522 18.4478 17 19 17C20.6567 17 22 15.6569 22 14V13.2668C22 12.8693 22.2246 12.5057 22.5803 12.3279L23.4473 11.8944C23.7859 11.725 24 11.3788 24 11C24 10.8057 23.9436 10.6199 23.843 10.4622C23.7476 10.3125 23.6121 10.1881 23.4473 10.1056L22.5803 9.67212C22.2246 9.49426 22 9.13074 22 8.73315V8C22 6.34314 20.6567 5 19 5C18.4478 5 18 5.44775 18 6C18 6.55225 18.4478 7 19 7Z" fill="white"/>
<path d="M17 9C17 9.55228 16.5523 10 16 10C15.4477 10 15 9.55228 15 9C15 8.44772 15.4477 8 16 8C16.5523 8 17 8.44772 17 9Z" fill="white"/>
<path d="M15 13V15.4037C15 15.733 15.267 16 15.5963 16C15.8401 16 16.059 15.8523 16.1472 15.625C16.4252 14.9078 17 13.3791 17 13C17 12.4477 16.5523 12 16 12C15.4477 12 15 12.4477 15 13Z" fill="white"/>
<path d="M7.72284 21.111C7.96544 21.111 8.14271 21.1325 8.25468 21.1757C8.37287 21.2127 8.45684 21.2774 8.5066 21.3699C8.57502 21.5117 8.60924 21.7028 8.60924 21.9432V25.5218C8.60924 26.1691 8.37287 26.7424 7.90012 27.2417C7.42738 27.7349 6.82401 27.9815 6.09002 27.9815C5.67948 27.9815 5.31559 27.8921 4.99836 27.7133C4.71222 27.5592 4.51317 27.4205 4.40121 27.2972L4.32657 27.2233C4.10886 26.9952 4 26.801 4 26.6407C4 26.4742 4.10886 26.2801 4.32657 26.0581C4.54428 25.8362 4.7371 25.7252 4.90505 25.7252C5.073 25.7252 5.25961 25.8269 5.46488 26.0304C5.67015 26.2338 5.89097 26.3355 6.12734 26.3355C6.36993 26.3355 6.56898 26.2554 6.72449 26.0951C6.88 25.9348 6.95775 25.7221 6.95775 25.4571V21.9987C6.95775 21.6288 7.01995 21.3915 7.14436 21.2867C7.28742 21.1695 7.48025 21.111 7.72284 21.111Z" fill="white"/>
<path d="M9.4567 26.9366C9.29497 26.7393 9.21411 26.5636 9.21411 26.4095C9.21411 26.2492 9.34785 26.0396 9.61532 25.7807C9.77083 25.6328 9.93566 25.5588 10.1098 25.5588C10.284 25.5588 10.5266 25.7129 10.8376 26.0211C10.9247 26.1259 11.0491 26.2277 11.2108 26.3263C11.3726 26.4188 11.5218 26.465 11.6587 26.465C12.2372 26.465 12.5264 26.2307 12.5264 25.7622C12.5264 25.6204 12.4456 25.5033 12.2838 25.4108C12.1283 25.3122 11.9324 25.2413 11.696 25.1982C11.4596 25.155 11.2046 25.0872 10.9309 24.9947C10.6572 24.8961 10.4022 24.782 10.1658 24.6526C9.92944 24.5231 9.73039 24.3197 9.56867 24.0423C9.41316 23.7587 9.33541 23.4196 9.33541 23.0251C9.33541 22.4826 9.53757 22.011 9.94188 21.6103C10.3524 21.2034 10.9091 21 11.612 21C11.9853 21 12.3243 21.0493 12.6291 21.148C12.9401 21.2404 13.1547 21.336 13.2729 21.4346L13.5061 21.6103C13.6989 21.7891 13.7954 21.9401 13.7954 22.0634C13.7954 22.1867 13.7207 22.3562 13.5714 22.572C13.3599 22.8802 13.1422 23.0343 12.9183 23.0343C12.7877 23.0343 12.6259 22.9727 12.4331 22.8494C12.4145 22.8371 12.3771 22.8063 12.3211 22.7569C12.2714 22.7076 12.2247 22.6675 12.1812 22.6367C12.0506 22.5566 11.8826 22.5165 11.6773 22.5165C11.4783 22.5165 11.3103 22.5658 11.1735 22.6645C11.0429 22.7569 10.9776 22.8895 10.9776 23.0621C10.9776 23.2285 11.0553 23.3642 11.2108 23.469C11.3726 23.5738 11.5716 23.6446 11.808 23.6816C12.0443 23.7186 12.3025 23.7772 12.5824 23.8573C12.8623 23.9313 13.1205 24.0238 13.3568 24.1347C13.5932 24.2457 13.7891 24.4399 13.9446 24.7173C14.1064 24.9886 14.1872 25.3245 14.1872 25.7252C14.1872 26.1259 14.1064 26.4804 13.9446 26.7886C13.7829 27.0907 13.5714 27.325 13.3102 27.4914C12.8063 27.8181 12.2683 27.9815 11.696 27.9815C11.4037 27.9815 11.1269 27.9476 10.8656 27.8798C10.6043 27.8058 10.3929 27.7164 10.2311 27.6116C9.90145 27.4144 9.6713 27.2232 9.54068 27.0383L9.4567 26.9366Z" fill="white"/>
<path d="M18.0035 21.0277C18.9241 21.0277 19.7234 21.3576 20.4014 22.0172C21.0794 22.6768 21.4184 23.4967 21.4184 24.4769C21.4184 25.4509 21.0949 26.2831 20.448 26.9736C19.8011 27.6579 19.0049 28 18.0594 28C17.114 28 16.3084 27.6609 15.6429 26.9828C14.9835 26.3047 14.6538 25.4971 14.6538 24.5601C14.6538 24.0484 14.7471 23.5707 14.9337 23.1268C15.1203 22.6768 15.3692 22.3007 15.6802 21.9987C15.9912 21.6966 16.3489 21.4593 16.7532 21.2867C17.1575 21.114 17.5743 21.0277 18.0035 21.0277ZM16.3053 24.5139C16.3053 25.0625 16.4826 25.5095 16.8372 25.8547C17.1979 26.1937 17.5991 26.3633 18.0408 26.3633C18.4824 26.3633 18.8805 26.1968 19.2351 25.8639C19.5896 25.531 19.7669 25.0841 19.7669 24.5231C19.7669 23.9621 19.5865 23.5121 19.2257 23.1731C18.8712 22.834 18.4731 22.6645 18.0314 22.6645C17.5898 22.6645 17.1917 22.8371 16.8372 23.1823C16.4826 23.5214 16.3053 23.9652 16.3053 24.5139Z" fill="white"/>
<path d="M26.4418 21.3976C26.504 21.2867 26.5942 21.2127 26.7124 21.1757C26.8306 21.1387 26.9768 21.1202 27.1509 21.1202C27.3313 21.1202 27.4744 21.1356 27.5801 21.1664C27.6921 21.1973 27.773 21.2343 27.8227 21.2774C27.8787 21.3206 27.9191 21.3853 27.944 21.4716C27.9813 21.5702 28 21.7274 28 21.9432V27.0753C28 27.2233 27.9938 27.3311 27.9813 27.3989C27.9751 27.4668 27.9471 27.5469 27.8974 27.6394C27.8103 27.8058 27.5677 27.889 27.1696 27.889C26.927 27.889 26.7591 27.8705 26.6657 27.8336C26.5724 27.7966 26.4947 27.738 26.4325 27.6579C25.0329 25.8085 24.1123 24.6002 23.6707 24.033V27.0753C23.6707 27.2233 23.6645 27.3311 23.652 27.3989C23.6458 27.4668 23.6178 27.5469 23.568 27.6394C23.481 27.8058 23.2384 27.889 22.8403 27.889C22.4546 27.889 22.2182 27.8058 22.1312 27.6394C22.0814 27.5469 22.0503 27.4637 22.0378 27.3897C22.0316 27.3157 22.0285 27.2078 22.0285 27.0661V21.9062C22.0285 21.672 22.0565 21.5024 22.1125 21.3976C22.1747 21.2867 22.2649 21.2127 22.3831 21.1757C22.5013 21.1387 22.6537 21.1202 22.8403 21.1202C23.0269 21.1202 23.1731 21.1387 23.2788 21.1757C23.3908 21.2065 23.4685 21.2435 23.5121 21.2867C23.5369 21.3052 23.6085 21.3853 23.7267 21.5271C25.0391 23.2963 25.9162 24.4646 26.3578 25.0317V21.9062C26.3578 21.672 26.3858 21.5024 26.4418 21.3976Z" fill="white"/>
</svg>
